# xmcd
#
# Track frame offsets:
#	150
#	11281
#	22606
#	35672
#	48509
#	61232
#	73704
#	85766
#	97357
#	107826
#	120667
#	132500
#	143651
#	156716
#	169571
#	180690
#	193158
#	202680
#	213314
#	223485
#	233962
#	245685
#	256092
#	266792
#	277850
#	290625
#	302107
#	314626
#	327268
#	336233
#
# Disc length: 4617 seconds
#
# Revision: 0
# Processed by: cddbd v1.5.2PL0 Copyright (c) Steve Scherf et al.
# Submitted via: EasyCDDAExtractor 2010.6.0.0
#
DISCID=cd12071e
DTITLE=Slim Willet - A Cold Can Of Beer
DYEAR=1900
DGENRE=
TTITLE0=I'm Going Strong
TTITLE1=I'm A Tool Pusher From Snyder
TTITLE2=Cold Can Of Beer
TTITLE3=I Call You Stingy
TTITLE4=Nobody Love A Fat Man
TTITLE5=Give Me That Kind Of Love (That You Would Like To Receive)
TTITLE6=My Story's Sadder Than Yourn
TTITLE7=When We Grow Old
TTITLE8=Hadacol Corners
TTITLE9=Don't Let The Stars Get In Your Eyes
TTITLE10=Let Me Know
TTITLE11=Hungry Slim
TTITLE12=Red Rose
TTITLE13=My Love Song To You
TTITLE14=Live While You're Young (Dream While You're Old)
TTITLE15=Let Me Know
TTITLE16=Come Sundown
TTITLE17=I Might Confess
TTITLE18=If Winter Comes
TTITLE19=Do As I Do
TTITLE20=It's Hard To Love Just One
TTITLE21=Villa Cuna
TTITLE22=Don't Waste Your Heart
TTITLE23=Love Me Baby
TTITLE24=Don't Laugh At Me
TTITLE25=Leave Me Alone Now
TTITLE26=Tall Men
TTITLE27=Mata Hari
TTITLE28=I've Been A Wonderin'
TTITLE29=Don't Let The Stars Get In Your Eyes (Instr.)
EXTD=
EXTT0=
EXTT1=
EXTT2=
EXTT3=
EXTT4=
EXTT5=
EXTT6=
EXTT7=
EXTT8=
EXTT9=
EXTT10=
EXTT11=
EXTT12=
EXTT13=
EXTT14=
EXTT15=
EXTT16=
EXTT17=
EXTT18=
EXTT19=
EXTT20=
EXTT21=
EXTT22=
EXTT23=
EXTT24=
EXTT25=
EXTT26=
EXTT27=
EXTT28=
EXTT29=
PLAYORDER=
